<?xml version="1.0" ?><svg height="512" viewBox="0 0 512 512" width="512" xmlns="http://www.w3.org/2000/svg"><g><g><g><path d="M255.921,72.63l7.971-27.571a16.544,16.544,0,0,1,8.5-10.2l.038-.019a6.122,6.122,0,0,0,3.384-5.475h0a6.122,6.122,0,0,0-6.122-6.122H242.312a6.122,6.122,0,0,0-6.122,6.122h0a6.122,6.122,0,0,0,3.384,5.475h0a16.546,16.546,0,0,1,8.516,10.273Z" fill="#e92949"/><path d="M255.921,181.846l7.971,27.572a16.549,16.549,0,0,0,8.5,10.2l.038.018a6.122,6.122,0,0,1,3.384,5.476h0a6.122,6.122,0,0,1-6.122,6.121H242.312a6.122,6.122,0,0,1-6.122-6.121h0a6.122,6.122,0,0,1,3.384-5.476h0a16.546,16.546,0,0,0,8.516-10.272Z" fill="#e92949"/><path d="M201.392,127.318l-27.571-7.971a16.553,16.553,0,0,1-10.206-8.5l-.018-.038a6.123,6.123,0,0,0-5.476-3.383h0A6.121,6.121,0,0,0,152,113.55v27.376a6.122,6.122,0,0,0,6.121,6.122h0a6.122,6.122,0,0,0,5.476-3.384h0a16.546,16.546,0,0,1,10.272-8.516Z" fill="#e92949"/><path d="M310.608,127.318l27.571-7.971a16.553,16.553,0,0,0,10.206-8.5l.018-.038a6.123,6.123,0,0,1,5.476-3.383h0A6.121,6.121,0,0,1,360,113.55v27.376a6.122,6.122,0,0,1-6.121,6.122h0a6.122,6.122,0,0,1-5.476-3.384h0a16.546,16.546,0,0,0-10.272-8.516Z" fill="#e92949"/><path d="M217.33,88.681,203.471,63.548a16.545,16.545,0,0,1-1.209-13.224l.014-.04A6.123,6.123,0,0,0,200.8,44.02h0a6.121,6.121,0,0,0-8.657,0L182.461,53.7l-9.679,9.679a6.121,6.121,0,0,0,0,8.657h0a6.121,6.121,0,0,0,6.264,1.479h0a16.55,16.55,0,0,1,13.286,1.242Z" fill="#e92949"/><path d="M294.558,165.908l25.132,13.86a16.549,16.549,0,0,0,13.224,1.208l.04-.014a6.123,6.123,0,0,1,6.264,1.479h0a6.121,6.121,0,0,1,0,8.657l-9.679,9.679-9.679,9.679a6.121,6.121,0,0,1-8.657,0h0a6.123,6.123,0,0,1-1.479-6.264h0a16.55,16.55,0,0,0-1.242-13.286Z" fill="#e92949"/><path d="M217.442,165.908l-25.132,13.86a16.549,16.549,0,0,1-13.224,1.208l-.04-.014a6.123,6.123,0,0,0-6.264,1.479h0a6.121,6.121,0,0,0,0,8.657l9.679,9.679,9.679,9.679a6.121,6.121,0,0,0,8.657,0h0a6.123,6.123,0,0,0,1.479-6.264h0a16.55,16.55,0,0,1,1.242-13.286Z" fill="#e92949"/><path d="M294.67,88.681l13.859-25.133a16.545,16.545,0,0,0,1.209-13.224l-.014-.04A6.123,6.123,0,0,1,311.2,44.02h0a6.121,6.121,0,0,1,8.657,0l9.679,9.679,9.679,9.679a6.121,6.121,0,0,1,0,8.657h0a6.121,6.121,0,0,1-6.264,1.479h0a16.55,16.55,0,0,0-13.286,1.242Z" fill="#e92949"/><g><circle cx="256" cy="127.238" fill="#5ec09b" r="69.333"/><circle cx="270.857" cy="97.524" fill="#e92949" r="14.857"/><circle cx="265.905" cy="152" fill="#e92949" r="19.81"/><circle cx="221.333" cy="122.286" fill="#e92949" r="9.905"/><circle cx="236.19" cy="92.571" fill="#e92949" r="4.952"/><circle cx="221.333" cy="156.952" fill="#e92949" r="4.952"/><circle cx="300.571" cy="127.238" fill="#e92949" r="4.952"/></g></g><path d="M144,352V296a32,32,0,0,1,32-32H336a32,32,0,0,1,32,32v56Z" fill="#d1e1e5"/><path d="M368,392H144V352a24,24,0,0,1,24-24H344a24,24,0,0,1,24,24Z" fill="#eceff0"/><rect fill="#0598c6" height="32" width="224" x="144" y="392"/><path d="M160,480a8,8,0,0,1-5.657-13.657L160,460.687V424a8,8,0,0,1,16,0v40a8,8,0,0,1-2.343,5.657l-8,8A7.974,7.974,0,0,1,160,480Z" fill="#d1e1e5"/><circle cx="160" cy="472" fill="#2c3f51" r="16"/><path d="M352,480a7.974,7.974,0,0,1-5.657-2.343l-8-8A8,8,0,0,1,336,464V424a8,8,0,0,1,16,0v36.687l5.657,5.656A8,8,0,0,1,352,480Z" fill="#d1e1e5"/><circle cx="352" cy="472" fill="#2c3f51" r="16"/><path d="M296,464h-8a8,8,0,0,1-5.657-2.343l-32-32a8,8,0,0,1,11.314-11.314L291.313,448H296a8,8,0,0,1,0,16Z" fill="#d1e1e5"/><path d="M176,328h0a32,32,0,0,1,32-32h96a32,32,0,0,1,32,32H176Z" fill="#5ec09b"/><circle cx="256" cy="264" fill="#fac8b2" r="32"/><polygon fill="#eceff0" points="24 272 24 288 48 312 48 272 24 272"/><path d="M48,224v88l-8,32,8,24V488h64v-8a24,24,0,0,0-24-24h0l16-40,8-64V200H96a16,16,0,0,1-16-16h0a16,16,0,0,1,16-16h16L96.28,147.04A27.6,27.6,0,0,0,74.2,136h0a27.6,27.6,0,0,0-25.369,16.728l-4.226,9.859A155.905,155.905,0,0,0,32,224H48Z" fill="#eceff0"/><path d="M96,168h24a0,0,0,0,1,0,0v32a0,0,0,0,1,0,0H96a16,16,0,0,1-16-16v0A16,16,0,0,1,96,168Z" fill="#0598c6"/><rect fill="#0598c6" height="48" width="24" x="24" y="224"/><path d="M64,232h0a16,16,0,0,0-16,16v64h96a16,16,0,0,0,16-16h0a16,16,0,0,0-16-16H80V248A16,16,0,0,0,64,232Z" fill="#d1e1e5"/><path d="M104,416H48v72h64v-8a24,24,0,0,0-24-24h0Z" fill="#0598c6"/><path d="M112,280v32h32a16,16,0,0,0,16-16h0a16,16,0,0,0-16-16Z" fill="#0598c6"/><polygon fill="#eceff0" points="488 272 488 288 464 312 464 272 488 272"/><path d="M464,224v88l8,32-8,24V488H400v-8a24,24,0,0,1,24-24h0l-16-40-8-64V200h16a16,16,0,0,0,16-16h0a16,16,0,0,0-16-16H400l15.72-20.96A27.6,27.6,0,0,1,437.8,136h0a27.6,27.6,0,0,1,25.369,16.728l4.226,9.859A155.905,155.905,0,0,1,480,224H464Z" fill="#eceff0"/><path d="M408,168h24a0,0,0,0,1,0,0v32a0,0,0,0,1,0,0H408a16,16,0,0,1-16-16v0A16,16,0,0,1,408,168Z" fill="#0598c6" transform="translate(824 368) rotate(180)"/><rect fill="#0598c6" height="48" transform="translate(952 496) rotate(-180)" width="24" x="464" y="224"/><path d="M448,232h0a16,16,0,0,1,16,16v64H368a16,16,0,0,1-16-16h0a16,16,0,0,1,16-16h64V248A16,16,0,0,1,448,232Z" fill="#d1e1e5"/><path d="M408,416h56v72H400v-8a24,24,0,0,1,24-24h0Z" fill="#0598c6"/><path d="M400,280v32H368a16,16,0,0,1-16-16h0a16,16,0,0,1,16-16Z" fill="#0598c6"/></g><path d="M270.857,121.143a22.882,22.882,0,0,0,22.857-22.857c-1.255-30.324-44.463-30.314-45.714,0A22.883,22.883,0,0,0,270.857,121.143Zm0-29.714a6.865,6.865,0,0,1,6.857,6.857c-.323,9.075-13.393,9.072-13.714,0A6.865,6.865,0,0,1,270.857,91.429Zm22.857,61.333a27.842,27.842,0,0,0-27.81-27.81c-36.892,1.528-36.881,54.1,0,55.619A27.841,27.841,0,0,0,293.714,152.762Zm-39.618,0a11.822,11.822,0,0,1,11.808-11.81c15.667.649,15.663,22.973,0,23.619A11.822,11.822,0,0,1,254.1,152.762Zm-32.763-47.619a17.925,17.925,0,0,0-17.9,17.905c.984,23.753,34.829,23.745,35.809,0A17.925,17.925,0,0,0,221.333,105.143Zm0,19.809a1.9,1.9,0,0,1,0-3.809A1.9,1.9,0,0,1,221.333,124.952ZM236.19,88.381c6.545.2,6.547,9.7,0,9.905C229.646,98.084,229.644,88.583,236.19,88.381Zm-14.857,74.286c-6.545-.2-6.546-9.7,0-9.905C227.878,152.963,227.88,162.464,221.333,162.667Zm79.238-39.619c6.545.2,6.547,9.7,0,9.9C294.027,132.751,294.026,123.25,300.571,123.048ZM488,216h-.2a162.856,162.856,0,0,0-13.056-56.564l-4.226-9.859a35.6,35.6,0,0,0-61.2-7.337L396,160h-4a8,8,0,0,0-8,8v32a8,8,0,0,0,8,8v64H368a40.024,40.024,0,0,0-32-16H295.2a40.027,40.027,0,0,0-13.533-22.652c4.42-6.725,1.689-16.634-5.585-20.068a8.553,8.553,0,0,1-4.5-5.321l-1.154-4a76.894,76.894,0,0,0,29.045-12.04c1.214,2.217,3.256,5.16,3.1,7.8-.032,2.446-1.324,4.667-1.16,7.16-.073,12.486,15.327,18.867,24.108,10l19.359-19.359a14.034,14.034,0,0,0,4.133-9.988c.208-9.507-9.912-16.7-18.822-13.318a8.577,8.577,0,0,1-6.631-.686l-3.661-2.02a76.905,76.905,0,0,0,12.059-29.035c2.111.664,5.445,1.222,7.117,2.793a8.409,8.409,0,0,1,2.185,2.768A14.125,14.125,0,0,0,368,141.69V114.31a14.191,14.191,0,0,0-14.12-14.119,14.039,14.039,0,0,0-12.659,7.849,8.536,8.536,0,0,1-5.262,4.385l-4,1.154a76.894,76.894,0,0,0-12.04-29.045l3.644-2.028a8.581,8.581,0,0,1,6.852-.636,14.074,14.074,0,0,0,4.46.72c12.486.073,18.867-15.326,10-24.108L325.518,39.123a14.034,14.034,0,0,0-9.988-4.133c-9.507-.209-16.7,9.915-13.318,18.822a8.572,8.572,0,0,1-.686,6.631l-2.02,3.661a76.906,76.906,0,0,0-29.085-12.068l1.155-4a8.576,8.576,0,0,1,4.445-5.288A14.124,14.124,0,0,0,269.69,16H242.31a14.125,14.125,0,0,0-6.318,26.755,8.45,8.45,0,0,1,2.773,2.206c1.5,1.618,2.141,5.026,2.765,7.084A76.919,76.919,0,0,0,212.494,64.1l-2.016-3.653a8.583,8.583,0,0,1-.693-6.63c3.384-8.906-3.8-19.045-13.315-18.831a14.034,14.034,0,0,0-9.988,4.133L167.123,58.482c-8.866,8.778-2.493,24.183,10,24.108a14.087,14.087,0,0,0,4.474-.725,8.621,8.621,0,0,1,6.845.645l3.637,2.024a76.91,76.91,0,0,0-12.04,29.045l-4-1.155a8.576,8.576,0,0,1-5.288-4.445A14.124,14.124,0,0,0,144,114.31v27.38a14.125,14.125,0,0,0,26.755,6.318,8.45,8.45,0,0,1,2.206-2.773c1.618-1.5,5.026-2.141,7.084-2.765A76.919,76.919,0,0,0,192.1,171.506l-3.653,2.016a8.575,8.575,0,0,1-6.63.693c-8.908-3.381-19.044,3.8-18.831,13.315a14.034,14.034,0,0,0,4.133,9.988l19.359,19.359c8.779,8.866,24.183,2.493,24.108-10,.164-2.487-1.126-4.706-1.16-7.16-.16-2.62,1.913-5.594,3.1-7.8a76.916,76.916,0,0,0,29,12.031l-1.138,4a8.558,8.558,0,0,1-4.423,5.3c-7.261,3.388-10.073,13.469-5.623,20.085A40.032,40.032,0,0,0,216.805,256H176a40.024,40.024,0,0,0-32,16H120V208a8,8,0,0,0,8-8V168a8,8,0,0,0-8-8h-4l-13.319-17.76a35.6,35.6,0,0,0-61.2,7.337l-4.227,9.859A162.856,162.856,0,0,0,24.2,216a8.009,8.009,0,0,0-8.2,8v64a8,8,0,0,0,2.343,5.657l20.8,20.8-6.9,27.605a8.01,8.01,0,0,0,.171,4.47L40,369.3c0,27.569,0,90.581,0,118.7a8,8,0,0,0,8,8h64a8,8,0,0,0,8-8v-8a32.054,32.054,0,0,0-20.968-30.04l12.4-30.989a8.754,8.754,0,0,0,.51-1.979l8-64A8.019,8.019,0,0,0,120,352V320h16c0,30.684,0,73.319,0,104a8,8,0,0,0,8,8h16v16c-31.839,1.319-31.83,46.686,0,48,22.04-.069,32.251-27.369,16-41.869V432h76.686l29.657,29.657A8,8,0,0,0,288,464h8c10.6-.391,10.6-15.608,0-16h-4.687l-16-16H336v22.131c-16.251,14.5-6.038,41.8,16,41.869,31.838-1.318,31.831-46.686,0-48V432h16a8,8,0,0,0,8-8c0-30.677,0-73.324,0-104h16v32a8.019,8.019,0,0,0,.062.992l8,64a8.754,8.754,0,0,0,.51,1.979l12.4,30.989A32.054,32.054,0,0,0,392,480v8a8,8,0,0,0,8,8h64a8,8,0,0,0,8-8c0-28.27,0-90.956,0-118.7l7.59-22.768a8.01,8.01,0,0,0,.171-4.47l-6.9-27.605,20.8-20.8A8,8,0,0,0,496,288V224A8,8,0,0,0,488,216ZM340.4,127.8a24.608,24.608,0,0,0,11.6-7.351v15.123a24.855,24.855,0,0,0-12.371-7.55Zm-168.7.414a24.647,24.647,0,0,0-11.7,7.36V120.436a24.757,24.757,0,0,0,12.371,7.583ZM160,480a8.009,8.009,0,0,1-8-8c.4-10.6,15.6-10.6,16,0A8.009,8.009,0,0,1,160,480Zm200-8a8.009,8.009,0,0,1-8,8c-10.6-.4-10.6-15.6,0-16A8.009,8.009,0,0,1,360,472Zm55.062-64L408,351.5V320h49.754l5.92,23.681L456.41,365.47A8.027,8.027,0,0,0,456,368v40ZM432,288a8,8,0,0,0,8-8V248c.4-10.59,15.6-10.6,16,0,.007,13.517,0,42.318,0,56H408V288Zm40-40V232h8v32h-8Zm-72-72h16a8,8,0,0,1,0,16H400Zm16,32c31.847-1.322,31.822-46.689,0-48l6.119-8.16c8.87-11.986,27.932-9.74,33.7,4.04,8.788,18.949,15.11,39.245,15.971,60.12H464c-5.106.024-8.5,4.437-8,9.376-15.148-5.668-32.309,6.38-32,22.624v24H408V208Zm-63.988,70.121c-13.613,11.925-8.993,34.666,7.988,40.5v5.681A32.037,32.037,0,0,0,343.2,320,40.068,40.068,0,0,0,304,288H287.978a39.841,39.841,0,0,0,7.217-16H336A24.015,24.015,0,0,1,352.012,278.121ZM360,384H152V360H360ZM232,264a24.028,24.028,0,0,1,24-24c31.839,1.319,31.83,46.686,0,48A24.028,24.028,0,0,1,232,264Zm72,40a24.042,24.042,0,0,1,22.629,16H185.371A24.042,24.042,0,0,1,208,304ZM176,336H344a16,16,0,0,1,13.835,8H154.165A16,16,0,0,1,168,336Zm18.667-208c0-1.166.04-2.322.1-3.472l.007-.089c6.991-76.644,115.482-76.586,122.444,0l.007.089c2.044,33.77-24.357,62.942-57.751,64.7C224.513,191.34,194.549,163.032,194.667,128Zm134.565,62.534-10.709,10.709a24.75,24.75,0,0,0-3.406-14.1A24.8,24.8,0,0,0,329.232,190.534ZM315.538,68.168a24.642,24.642,0,0,0,3-13.4l10.709,10.709a24.816,24.816,0,0,0-14.1,3.406ZM263.564,32a24.757,24.757,0,0,0-7.583,12.371A24.8,24.8,0,0,0,248.429,32ZM184.28,65.43q-.764,0-1.523.047l10.709-10.709a24.853,24.853,0,0,0,3.39,14.115A24.778,24.778,0,0,0,184.28,65.43Zm12.253,122.341a24.6,24.6,0,0,0-3.056,13.472l-10.709-10.709a24.888,24.888,0,0,0,14.115-3.39ZM248.431,224a24.855,24.855,0,0,0,7.55-12.371A24.821,24.821,0,0,0,263.554,224ZM176,272h40.805a39.841,39.841,0,0,0,7.217,16H208a40.068,40.068,0,0,0-39.195,32A32.037,32.037,0,0,0,152,324.305v-5.681c16.989-5.842,21.6-28.584,7.988-40.5A24.015,24.015,0,0,1,176,272ZM56,408V368a8.027,8.027,0,0,0-.41-2.53l-7.264-21.789L54.246,320H104v31.5L96.938,408ZM32,232h8v32H32Zm24,72c.02-13.75-.015-42.427,0-56a8,8,0,0,1,16,0v32a8,8,0,0,0,8,8h24v16Zm56-112H96a8,8,0,0,1,0-16h16ZM51.959,165.738l4.226-9.858a19.6,19.6,0,0,1,33.695-4.04L96,160c-31.845,1.322-31.824,46.688,0,48h8v64H88V248c.311-16.243-16.855-28.295-32-22.624.5-4.94-2.894-9.353-8-9.376H40.213A146.966,146.966,0,0,1,51.959,165.738ZM32,280h8v12.687l-8-8Zm72,200H56V424H92.184L80.572,453.029A8.055,8.055,0,0,0,88,464,16.019,16.019,0,0,1,104,480Zm16-192h24a8,8,0,0,1,0,16H120ZM360,416H152V400H360Zm8-112c-10.6-.4-10.6-15.6,0-16h24v16Zm88,176H408a16.019,16.019,0,0,1,16-16,8.055,8.055,0,0,0,7.428-10.971L419.816,424H456Zm24-195.313-8,8V280h8Z"/></g></svg>